<svg id="cart-lt" viewBox="0 0 32 32"><path fill-rule="evenodd" clip-rule="evenodd" d="M30.843 11.285l-3.081 8.42a3.136 3.136 0 01-1.122 1.425 3.103 3.103 0 01-1.718.559h-13.24a2.875 2.875 0 01-1.769-.646 2.911 2.911 0 01-.998-1.605L5.942 5.103H1V2h5.172a2.852 2.852 0 011.765.644c.5.409.849.975.99 1.607l.833 3.967h18.956a2.283 2.283 0 011.897.95 2.285 2.285 0 01.23 2.117zm-20.442.048l1.51 7.253h13.011l2.61-7.265H10.401v.012zm2.32 12.437c.612.002 1.209.187 1.716.531a3.11 3.11 0 011.134 1.403 3.136 3.136 0 01-.684 3.392 3.074 3.074 0 01-3.374.662 3.099 3.099 0 01-1.383-1.153 3.131 3.131 0 01-.515-1.732 3.126 3.126 0 01.92-2.192 3.082 3.082 0 012.186-.9v-.011zm10.85 0c.613 0 1.211.183 1.72.526.51.342.906.83 1.14 1.4a3.136 3.136 0 01-.676 3.396 3.074 3.074 0 01-3.375.668 3.099 3.099 0 01-1.386-1.153 3.13 3.13 0 01.395-3.93 3.082 3.082 0 012.183-.907z" fill="currentColor"></path></svg>