<svg xmlns="http://www.w3.org/2000/svg" width="28" height="28.738" viewBox="0 0 28 28.738">
  <g id="_1" data-name="1" transform="translate(-55.7 -48)">
    <path id="Path_1596" data-name="Path 1596" d="M161.286,148.394H146.622a1.072,1.072,0,0,1-1.047-.834L143.106,136.8a1.072,1.072,0,0,1,1.045-1.313h19.607a1.072,1.072,0,0,1,1.047,1.313l-2.473,10.757A1.072,1.072,0,0,1,161.286,148.394Zm-13.811-2.145h12.957l1.978-8.613H145.5Z" transform="translate(-81.132 -81.236)" fill="#00aa14"/>
    <path id="Path_1597" data-name="Path 1597" d="M168.629,343.258a4.109,4.109,0,1,1,4.109-4.109A4.109,4.109,0,0,1,168.629,343.258Zm0-6.073a1.964,1.964,0,1,0,1.964,1.964A1.964,1.964,0,0,0,168.629,337.185Z" transform="translate(-101.041 -266.52)" fill="#00aa14"/>
    <path id="Path_1598" data-name="Path 1598" d="M315.049,343.258a4.109,4.109,0,1,1,4.109-4.109A4.109,4.109,0,0,1,315.049,343.258Zm0-6.073a1.964,1.964,0,1,0,1.964,1.964A1.964,1.964,0,0,0,315.049,337.185Z" transform="translate(-236.994 -266.52)" fill="#00aa14"/>
    <path id="Path_1599" data-name="Path 1599" d="M63.019,56.4A1.072,1.072,0,0,1,62,55.666l-1.838-5.521H56.772a1.072,1.072,0,1,1,0-2.145H60.94a1.072,1.072,0,0,1,1.017.733l2.082,6.254A1.072,1.072,0,0,1,63.022,56.4Z" fill="#00aa14"/>
  </g>
</svg>
