<svg xmlns="http://www.w3.org/2000/svg" xmlns:xlink="http://www.w3.org/1999/xlink" width="27.923" height="31.923" viewBox="0 0 27.923 31.923">
  <defs>
    <clipPath id="clip-path">
      <rect id="Rectangle_363" data-name="Rectangle 363" width="27.923" height="31.923" transform="translate(0 0)" fill="none"/>
    </clipPath>
  </defs>
  <g id="Group_882" data-name="Group 882" transform="translate(0 0)">
    <g id="Group_881" data-name="Group 881" clip-path="url(#clip-path)">
      <path id="Path_1600" data-name="Path 1600" d="M16,29H3a2,2,0,0,1-2-2V3A2,2,0,0,1,3,1H14l7,7V18" fill="none" stroke="#00aa14" stroke-linecap="round" stroke-linejoin="round" stroke-width="2"/>
      <path id="Path_1601" data-name="Path 1601" d="M21,8H14V1" fill="none" stroke="#00aa14" stroke-linecap="round" stroke-linejoin="round" stroke-width="2"/>
      <line id="Line_1" data-name="Line 1" x2="11" transform="translate(5 13)" fill="none" stroke="#00aa14" stroke-linecap="round" stroke-linejoin="round" stroke-width="2"/>
      <line id="Line_2" data-name="Line 2" x2="8" transform="translate(5 16)" fill="none" stroke="#00aa14" stroke-linecap="round" stroke-linejoin="round" stroke-width="2"/>
      <circle id="Ellipse_64" data-name="Ellipse 64" cx="6" cy="6" r="6" transform="translate(15 19)" fill="none" stroke="#00aa14" stroke-linecap="round" stroke-linejoin="round" stroke-width="1.846"/>
      <path id="Path_1602" data-name="Path 1602" d="M19.792,27.75a.809.809,0,0,0,1.145-.031.754.754,0,0,0,.1-.127l2.594-3.847L24,23.194a.778.778,0,0,0-.283-1.064l0,0a.815.815,0,0,0-1.082.279c-.865,1.283-2.312,3.448-2.413,3.6-.557-.525-.425-.4-.982-.927a.81.81,0,0,0-1.119,0,.783.783,0,0,0,0,1.1Z" fill="#00aa14"/>
    </g>
  </g>
</svg>
