<svg class="icon icon-menu-labas" xmlns="http://www.w3.org/2000/svg" viewBox="0 84.82 255.99 86.36"><path fill="currentColor" d="m20.42 142.04c.01 16.07 13.04 29.11 29.12 29.11 1.84 0 3.65-.18 5.4-.5 4.18-.8 6.92-4.79 6.14-8.98-.77-4.17-4.79-6.92-8.98-6.14-.81.17-1.68.27-2.56.27-7.57-.02-13.74-6.18-13.76-13.77.02-7.61 6.18-13.76 13.76-13.79 7.61.03 13.76 6.17 13.77 13.79v21.43c0 4.24 3.45 7.67 7.68 7.67s7.68-3.43 7.68-7.67v-21.43c0-16.09-13.03-29.14-29.13-29.14s-29.11 13.05-29.12 29.14"></path><path fill="currentColor" d="m145.59 142.04c.01 16.07 13.04 29.11 29.12 29.11 1.82 0 3.65-.18 5.42-.5 4.16-.8 6.89-4.81 6.11-8.98-.79-4.17-4.8-6.92-8.97-6.14-.82.17-1.66.27-2.56.27-7.6-.02-13.74-6.18-13.76-13.77.01-7.61 6.16-13.75 13.76-13.79 7.6.04 13.73 6.17 13.76 13.79v21.4c0 4.27 3.43 7.71 7.68 7.71s7.69-3.45 7.69-7.71v-21.4c0-16.09-13.03-29.13-29.12-29.14-16.09 0-29.11 13.05-29.12 29.14"></path><path fill="currentColor" d="m83.02 142.02c0 16.09 13.02 29.13 29.13 29.14 16.08 0 29.1-13.05 29.11-29.14 0-16.09-13.03-29.11-29.11-29.12-1.86 0-3.66.17-5.43.51-4.16.78-6.91 4.79-6.12 8.96.78 4.19 4.8 6.93 8.97 6.14.82-.17 1.68-.25 2.58-.25 7.57.02 13.74 6.17 13.75 13.76-.01 7.61-6.17 13.74-13.75 13.78-7.61-.04-13.76-6.17-13.78-13.78v-49.51c0-4.26-3.43-7.69-7.68-7.69s-7.67 3.44-7.67 7.69z"></path><path fill="currentColor" d="m0 163.47c0 4.24 3.43 7.69 7.68 7.69s7.68-3.45 7.68-7.69v-70.87c0-4.24-3.43-7.7-7.68-7.7s-7.68 3.45-7.68 7.7v70.86z"></path><path fill="currentColor" d="m248.64 140.09c-2.89-1.85-6.19-2.84-13.03-5.13-3.88-1.3-10.29-2.37-9.87-6.54.38-3.73 4.71-4.76 10.69-1.94 3.1 1.46 9.5 7.21 14.36 3.11 6.13-5.16-.26-12.17-7.14-14.86-2.91-1.14-7.14-1.85-11.25-1.85-14.62 0-21.51 7.79-21.41 17.55.06 5.74 3.72 12.58 22.11 17.32 2.44.63 9.03 2.73 8.3 7.13-.43 2.55-3.17 4.43-7.34 3.83-3.14-.45-6.3-1.54-12.13-6.07-1-.78-3.86-3.05-6.92-3.13-2.95-.08-5.48 1.84-6.52 4.4-1.5 3.69.82 6.93 1.23 7.45 1.96 2.46 9.23 9.8 24.03 9.82 13.18.02 22.26-6.94 22.24-17.86-.01-6.96-4.74-11.56-7.36-13.23"></path></svg>