<svg class="icon icon-logo-lt" aria-hidden="true" id="logo-lt" viewBox="0 0 84 40"> <path fill-rule="evenodd" clip-rule="evenodd" d="M59.3269 17.5975H61.9926V29.8284H59.3269V17.5975ZM39.7373 9.17317V30.8268C39.7373 35.8814 35.6458 40 30.6244 40H0V9.17317C0 4.11856 4.09151 0 9.11292 0H30.6244C35.6458 0 39.7373 4.11856 39.7373 9.17317ZM51.3919 27.3947C53.3756 27.3947 54.9255 25.8346 54.9255 23.8378C54.9255 21.9033 53.3137 20.2808 51.3299 20.2808H47.8583V20.6552V23.8378C47.8583 25.7722 49.4081 27.3947 51.3919 27.3947ZM51.3299 17.5975C54.7395 17.5975 57.5292 20.4056 57.5292 23.8378C57.5292 27.2699 54.8015 30.078 51.3299 30.0156C47.9203 30.0156 45.1306 27.2075 45.1306 23.7753V20.5928V17.5351V10.9828H47.7963V17.5975H51.3299ZM60.6908 13.0421C61.4967 13.0421 62.1166 13.6661 62.1166 14.4774C62.1166 15.2886 61.4967 15.9126 60.6908 15.9126C59.8849 15.9126 59.265 15.2886 59.265 14.4774C59.265 13.6661 59.8849 13.0421 60.6908 13.0421ZM70.6716 30.1404H70.2996C67.448 29.9532 65.4022 27.7691 65.4642 24.8986V20.156H63.4804V17.5975H65.4642V13.1669H68.0679V17.5975H70.6716V20.156H68.0059V24.8986C68.0059 26.3339 68.9358 27.3947 70.2996 27.5195H70.6716V30.1404ZM77.9247 13.0421C78.7306 13.0421 79.3506 13.6661 79.3506 14.4774C79.3506 15.2886 78.6686 15.975 77.9247 15.9126C77.1188 15.9126 76.4989 15.2886 76.4989 14.4774C76.4989 13.6661 77.1188 13.0421 77.9247 13.0421ZM74.6391 22.1529H81.0244C80.4664 20.7176 79.2266 19.7816 77.8627 19.7816C76.6229 19.7816 75.259 20.5928 74.6391 22.1529ZM82.0782 19.0952C83.3181 20.3432 84 22.1529 84 24.2122L83.938 24.5242H74.3912C74.7011 26.5211 76.4369 27.5819 77.9247 27.5819C79.2266 27.5819 80.2185 27.0203 80.8384 25.9594H83.69C82.8221 28.5803 80.7144 30.078 77.9247 30.078C74.4531 30.078 71.7255 27.2699 71.7255 23.7129C71.7255 20.156 74.5151 17.2855 77.8627 17.2855C79.4745 17.2855 80.9624 17.9719 82.0782 19.0952ZM16.0563 23.9362C16.0563 26.617 18.2113 28.8511 20.9366 28.8511C23.662 28.8511 25.8169 26.617 25.8169 23.9362C25.8169 21.2553 23.662 19.0213 20.9366 19.0213H16.0563V23.9362ZM16.0563 14.8723H20.9366C25.8803 14.8723 30 18.9574 30 23.9362C30 28.9149 25.9437 33 21 33C16.0563 33 12 28.9149 12 23.9362V14.8723V6H16.0563V14.8723Z" fill="currentColor"></path> </svg>