<svg id="_4230513_piggy_bank_savings_icon" data-name="4230513_piggy bank_savings_icon" xmlns="http://www.w3.org/2000/svg" width="66.919" height="64.609" viewBox="0 0 66.919 64.609">
  <path id="Path_1692" data-name="Path 1692" d="M195.342,18.15a11.587,11.587,0,0,0-6.387-6.138,11.422,11.422,0,0,0-8.847.194,11.553,11.553,0,0,0-3.539,2.433,1.369,1.369,0,0,0,1.935,1.935,8.745,8.745,0,0,1,2.71-1.852,8.851,8.851,0,0,1,7.133,16.2,9.206,9.206,0,0,1-3.207.746,1.369,1.369,0,0,0,.055,2.737h.055A11.545,11.545,0,0,0,195.342,18.15Z" transform="translate(-129.401 -11.214)" fill="#fff"/>
  <path id="Path_1693" data-name="Path 1693" d="M123.492,55.177a11.689,11.689,0,0,0,4.2.8,11.415,11.415,0,0,0,4.645-1,11.587,11.587,0,0,0,6.138-6.387,11.422,11.422,0,0,0-.194-8.847,11.587,11.587,0,0,0-6.387-6.138,11.422,11.422,0,0,0-8.847.194h0a11.587,11.587,0,0,0-6.138,6.387,11.6,11.6,0,0,0,6.58,14.985Zm-4.037-13.99a8.82,8.82,0,0,1,4.673-4.894h0a8.842,8.842,0,0,1,3.539-.746,8.581,8.581,0,0,1,3.207.608,8.841,8.841,0,1,1-11.308,11.806A8.977,8.977,0,0,1,119.456,41.188Z" transform="translate(-85.946 -26.842)" fill="#fff"/>
  <path id="Path_1694" data-name="Path 1694" d="M80.093,74.824a1.291,1.291,0,0,0,.47-.083,23.542,23.542,0,0,1,4.977-1.3,1.357,1.357,0,0,0-.415-2.682A27.587,27.587,0,0,0,79.6,72.2a1.386,1.386,0,0,0-.8,1.742A1.443,1.443,0,0,0,80.093,74.824Z" transform="translate(-58.887 -54.285)" fill="#fff"/>
  <path id="Path_1695" data-name="Path 1695" d="M63.6,92.345a20.247,20.247,0,0,0-2.765-6.055,1.357,1.357,0,0,0-2.267,1.493,18,18,0,0,1,2.405,5.253,14.457,14.457,0,0,1,.332,1.493,17.921,17.921,0,0,1-4.728,15.621,3.824,3.824,0,0,0-.968,1.714l-2.544,8.792h-5.7l-.664-2.6a1.362,1.362,0,0,0-1.327-1.023l-14.57-.055h0A1.386,1.386,0,0,0,29.478,118l-.691,2.654H23.119l-1.631-5.751a4.126,4.126,0,0,0-2.239-2.6,49.551,49.551,0,0,1-9.179-5.391.931.931,0,0,1-.359-.746l.028-10.755,1.465-.028a1.433,1.433,0,0,0,1.078-.553l5.834-7.741c.028-.055.083-.111.111-.166a1.873,1.873,0,0,0-.166-1.825c-.055-.166-.138-.332-.194-.5l-.111-.249c-.221-.525-.47-1.051-.719-1.548-.442-.94-.94-1.88-1.438-2.792-.055-.111-.111-.194-.166-.3h.387a11.271,11.271,0,0,1,3.815.608c.332.111,1.023.442,1.189.525a.027.027,0,0,1,.028.028c.249.138,1.714,1,2.046,1.244a12.04,12.04,0,0,1,3.539,4.258,1.36,1.36,0,1,0,2.433-1.217,14.975,14.975,0,0,0-4.341-5.225c-.47-.359-1.908-1.189-2.295-1.41a6.827,6.827,0,0,0-1.714-.774A13.659,13.659,0,0,0,15.93,77c-.332,0-.664,0-.94.028l-.525.028a.351.351,0,0,0-.166.028h0c-.055,0-.111.028-.166.028A2.338,2.338,0,0,0,12.5,78.493a2.37,2.37,0,0,0,.138,1.714,4,4,0,0,0,.415.857c0,.028.055.083.083.111l.083.138c.47.885.94,1.769,1.382,2.682.221.5.47.968.664,1.438l.111.276a1.92,1.92,0,0,1,.138.359l-4.977,6.608L8.382,92.7a1.334,1.334,0,0,0-1.327,1.355L7,106.2a3.654,3.654,0,0,0,1.438,2.931,51.916,51.916,0,0,0,9.7,5.723,1.316,1.316,0,0,1,.719.857l1.935,6.718a1.36,1.36,0,0,0,1.3,1h7.769a1.386,1.386,0,0,0,1.327-1.023l.691-2.654,12.442.055.664,2.6a1.362,1.362,0,0,0,1.327,1.023h7.8a1.36,1.36,0,0,0,1.3-1l2.848-9.843a1.273,1.273,0,0,1,.276-.5,20.674,20.674,0,0,0,5.474-18Q63.844,93.216,63.6,92.345Z" transform="translate(-7 -58.812)" fill="#fff"/>
  <path id="Path_1696" data-name="Path 1696" d="M52.668,130.784a2.184,2.184,0,1,1-2.184-2.184A2.207,2.207,0,0,1,52.668,130.784Z" transform="translate(-36.881 -96.145)" fill="#fff"/>
</svg>
