<svg xmlns="http://www.w3.org/2000/svg" xmlns:xlink="http://www.w3.org/1999/xlink" width="1903.267" height="41.661" viewBox="0 0 1903.267 41.661">
  <defs>
    <clipPath id="clip-path">
      <rect id="Rectangle_540" data-name="Rectangle 540" width="1903.267" height="41.661" transform="translate(0 0)" fill="none"/>
    </clipPath>
  </defs>
  <g id="Group_1289" data-name="Group 1289" transform="translate(0 0)">
    <g id="Group_1288" data-name="Group 1288" clip-path="url(#clip-path)">
      <path id="Path_1632" data-name="Path 1632" d="M932.989,13.19a20.51,20.51,0,1,1-.022.053c.007-.018.015-.035.022-.053" fill="#00aa14"/>
      <path id="Path_1633" data-name="Path 1633" d="M968,21.072c-10.435,3.121-12.965,5.66-16.085,16.106-3.123-10.446-5.654-12.98-16.089-16.106,10.435-3.125,12.967-5.659,16.087-16.105,3.122,10.447,5.652,12.982,16.087,16.105" fill="#fff"/>
      <path id="Path_1634" data-name="Path 1634" d="M1321.453.545l-19.836,20.523h39.672Z" fill="#38622c"/>
      <path id="Path_1635" data-name="Path 1635" d="M1282.361,35.945c7.281,3.363,12.062-1.424,8.7-8.713,7.524-2.777,7.524-9.545,0-12.322,3.359-7.29-1.422-12.076-8.7-8.713-2.773-7.532-9.534-7.532-12.308,0-7.281-3.363-12.062,1.424-8.7,8.713-7.524,2.776-7.524,9.545,0,12.322-3.359,7.289,1.422,12.076,8.7,8.713,2.774,7.532,9.534,7.532,12.308,0" fill="#264723"/>
      <path id="Path_1636" data-name="Path 1636" d="M1229.732,41.6a20.523,20.523,0,1,1,20.5-20.546v.023a20.511,20.511,0,0,1-20.5,20.523Z" fill="#00aa14"/>
      <path id="Path_1637" data-name="Path 1637" d="M1229.732,4.967c3.121,10.447,5.652,12.982,16.087,16.105-10.435,3.125-12.968,5.659-16.087,16.1-3.122-10.447-5.653-12.982-16.087-16.1,10.434-3.125,12.967-5.659,16.087-16.105" fill="#fff"/>
      <path id="Path_1638" data-name="Path 1638" d="M1414.573,41.433c-2.582,0-4.9-2.038-6.261-5.471-3.384,1.468-6.466,1.264-8.292-.563s-2.029-4.913-.562-8.3c-3.429-1.358-5.465-3.683-5.465-6.268s2.036-4.91,5.465-6.268c-1.466-3.388-1.263-6.473.563-8.3s4.908-2.031,8.292-.564c1.356-3.433,3.679-5.471,6.261-5.471s4.9,2.038,6.26,5.471c3.384-1.468,6.466-1.264,8.292.563s2.028,4.913.563,8.3c3.43,1.358,5.465,3.683,5.465,6.268s-2.036,4.91-5.465,6.268c1.466,3.388,1.263,6.473-.563,8.3s-4.907,2.031-8.292.563c-1.356,3.433-3.679,5.472-6.26,5.472m-5.9-6.344.12.328c1.239,3.363,3.4,5.371,5.779,5.371s4.54-2.008,5.778-5.371l.121-.328.317.146c3.251,1.5,6.2,1.392,7.88-.293s1.792-4.634.292-7.887l-.146-.317.328-.121c3.359-1.241,5.365-3.4,5.365-5.785s-2.006-4.546-5.365-5.785l-.328-.121.146-.317c1.5-3.255,1.391-6.2-.292-7.887s-4.629-1.794-7.88-.293l-.317.146-.121-.328c-1.239-3.363-3.4-5.371-5.779-5.371s-4.54,2.008-5.779,5.371l-.12.328-.317-.146c-3.251-1.5-6.2-1.392-7.878.293s-1.792,4.634-.293,7.887l.147.317-.328.121c-3.36,1.241-5.365,3.4-5.365,5.785s2.006,4.546,5.365,5.785l.328.121-.147.317c-1.5,3.255-1.39,6.2.293,7.887s4.629,1.794,7.878.293Z" fill="#00aa14"/>
      <path id="Path_1639" data-name="Path 1639" d="M1357.625,3.614a20.452,20.452,0,1,1-.06.037l.06-.037" fill="#264723"/>
      <path id="Path_1640" data-name="Path 1640" d="M1368.4,4.967c3.122,10.447,5.652,12.982,16.087,16.105-10.435,3.125-12.967,5.659-16.087,16.1-3.122-10.447-5.652-12.982-16.087-16.1,10.435-3.125,12.967-5.659,16.087-16.105" fill="#00aa14"/>
      <path id="Path_1641" data-name="Path 1641" d="M1600.31.545l-19.836,20.523h39.672Z" fill="#38622c"/>
      <path id="Path_1642" data-name="Path 1642" d="M1560.063,35.945c7.281,3.363,12.062-1.424,8.7-8.713,7.524-2.777,7.524-9.545,0-12.322,3.359-7.29-1.422-12.076-8.7-8.713-2.773-7.532-9.534-7.532-12.308,0-7.281-3.363-12.062,1.424-8.7,8.713-7.524,2.776-7.524,9.545,0,12.322-3.359,7.289,1.422,12.076,8.7,8.713,2.773,7.532,9.534,7.532,12.308,0" fill="#264723"/>
      <path id="Path_1643" data-name="Path 1643" d="M1888.924,35.945c7.281,3.363,12.062-1.424,8.7-8.713,7.524-2.777,7.524-9.545,0-12.322,3.359-7.29-1.422-12.076-8.7-8.713-2.773-7.532-9.534-7.532-12.308,0-7.281-3.363-12.062,1.424-8.7,8.713-7.524,2.776-7.524,9.545,0,12.322-3.359,7.289,1.422,12.076,8.7,8.713,2.773,7.532,9.534,7.532,12.308,0" fill="#264723"/>
      <path id="Path_1644" data-name="Path 1644" d="M1506.148,41.6a20.523,20.523,0,1,1,20.5-20.546v.023a20.511,20.511,0,0,1-20.5,20.523Z" fill="#00aa14"/>
      <path id="Path_1645" data-name="Path 1645" d="M1506.152,4.967c3.122,10.447,5.652,12.982,16.087,16.105-10.435,3.125-12.968,5.659-16.087,16.1-3.122-10.447-5.652-12.982-16.087-16.1,10.435-3.125,12.967-5.659,16.087-16.105" fill="#fff"/>
      <path id="Path_1646" data-name="Path 1646" d="M1694.01,41.433c-2.582,0-4.9-2.038-6.26-5.471-3.384,1.468-6.466,1.264-8.291-.563s-2.029-4.913-.562-8.3c-3.43-1.358-5.465-3.683-5.465-6.268s2.036-4.91,5.465-6.268c-1.466-3.388-1.263-6.473.562-8.3s4.908-2.031,8.291-.564c1.356-3.433,3.679-5.471,6.26-5.471s4.905,2.038,6.26,5.471c3.384-1.468,6.467-1.264,8.292.563s2.029,4.913.562,8.3c3.43,1.358,5.465,3.683,5.465,6.268s-2.035,4.91-5.465,6.268c1.466,3.388,1.263,6.473-.562,8.3s-4.908,2.031-8.292.563c-1.355,3.433-3.678,5.472-6.26,5.472m-5.9-6.344.12.328c1.239,3.363,3.4,5.371,5.779,5.371s4.54-2.008,5.778-5.371l.12-.328.317.146c3.25,1.5,6.2,1.392,7.88-.293s1.792-4.634.292-7.887l-.146-.317.328-.121c3.359-1.241,5.365-3.4,5.365-5.785s-2.006-4.546-5.365-5.785l-.328-.121.146-.317c1.5-3.255,1.391-6.2-.292-7.887s-4.629-1.794-7.88-.293l-.317.146-.12-.328c-1.24-3.363-3.4-5.371-5.779-5.371s-4.541,2.008-5.779,5.371l-.12.328-.317-.146c-3.25-1.5-6.2-1.392-7.878.293s-1.792,4.634-.293,7.887l.147.317-.327.121c-3.359,1.241-5.365,3.4-5.365,5.785s2.006,4.546,5.365,5.785l.327.121-.147.317c-1.5,3.255-1.391,6.2.293,7.887s4.629,1.794,7.878.293Z" fill="#00aa14"/>
      <path id="Path_1647" data-name="Path 1647" d="M1647.8,41.6a20.523,20.523,0,1,1,20.5-20.546v.023A20.511,20.511,0,0,1,1647.8,41.6Z" fill="#264723"/>
      <path id="Path_1648" data-name="Path 1648" d="M1647.8,4.967c3.121,10.447,5.652,12.982,16.087,16.105-10.435,3.125-12.967,5.659-16.087,16.1-3.122-10.447-5.652-12.982-16.087-16.1,10.435-3.125,12.967-5.659,16.087-16.105" fill="#00aa14"/>
      <path id="Path_1649" data-name="Path 1649" d="M1741.931,41.6a20.523,20.523,0,1,1,20.5-20.546v.023a20.511,20.511,0,0,1-20.5,20.523Z" fill="#264723"/>
      <path id="Path_1650" data-name="Path 1650" d="M1741.93,4.967c3.122,10.447,5.652,12.982,16.087,16.105-10.435,3.125-12.967,5.659-16.087,16.1-3.122-10.447-5.652-12.982-16.087-16.1,10.435-3.125,12.967-5.659,16.087-16.105" fill="#00aa14"/>
      <path id="Path_1651" data-name="Path 1651" d="M1043.775.545,1023.94,21.072h39.672Z" fill="#38622c"/>
      <path id="Path_1652" data-name="Path 1652" d="M1004.571,35.945c7.281,3.363,12.062-1.424,8.7-8.713,7.524-2.777,7.524-9.545,0-12.322,3.36-7.29-1.422-12.076-8.7-8.713-2.774-7.532-9.534-7.532-12.308,0-7.281-3.363-12.061,1.424-8.7,8.713-7.524,2.776-7.524,9.545,0,12.322-3.359,7.289,1.422,12.076,8.7,8.713,2.773,7.532,9.534,7.532,12.307,0" fill="#264723"/>
      <path id="Path_1653" data-name="Path 1653" d="M1137.243,41.433c-2.582,0-4.9-2.038-6.261-5.471-3.384,1.468-6.466,1.264-8.291-.563s-2.029-4.913-.563-8.3c-3.43-1.358-5.465-3.683-5.465-6.268s2.036-4.91,5.465-6.268c-1.466-3.388-1.263-6.473.563-8.3s4.908-2.031,8.291-.563c1.356-3.433,3.679-5.472,6.261-5.472s4.9,2.038,6.261,5.471c3.384-1.468,6.466-1.265,8.291.563s2.029,4.913.563,8.3c3.43,1.358,5.465,3.683,5.465,6.268s-2.036,4.91-5.465,6.268c1.466,3.388,1.263,6.473-.562,8.3s-4.907,2.031-8.291.563c-1.357,3.433-3.677,5.472-6.261,5.472m-5.9-6.344.121.328c1.239,3.363,3.4,5.371,5.778,5.371s4.541-2.008,5.779-5.371l.121-.328.317.146c3.251,1.5,6.2,1.392,7.878-.293s1.792-4.634.292-7.887l-.146-.317.328-.121c3.359-1.241,5.366-3.4,5.366-5.785s-2.006-4.546-5.366-5.785l-.328-.121.146-.317c1.5-3.255,1.391-6.2-.292-7.887s-4.628-1.794-7.878-.293l-.317.146-.121-.328c-1.239-3.363-3.4-5.371-5.779-5.371s-4.541,2-5.78,5.367l-.121.328-.317-.146c-3.251-1.5-6.2-1.392-7.878.293s-1.792,4.634-.293,7.887l.146.317-.328.121c-3.36,1.241-5.365,3.4-5.365,5.785s2.005,4.546,5.365,5.785l.328.121-.146.317c-1.5,3.255-1.391,6.2.293,7.887s4.628,1.794,7.878.293Z" fill="#00aa14"/>
      <path id="Path_1654" data-name="Path 1654" d="M1091.076,41.6a20.523,20.523,0,1,1,20.5-20.546v.023a20.511,20.511,0,0,1-20.5,20.523Z" fill="#264723"/>
      <path id="Path_1655" data-name="Path 1655" d="M1091.076,4.967c3.122,10.447,5.652,12.982,16.087,16.105-10.435,3.125-12.967,5.659-16.087,16.1-3.122-10.447-5.652-12.982-16.087-16.1,10.435-3.125,12.967-5.659,16.087-16.105" fill="#00aa14"/>
      <path id="Path_1656" data-name="Path 1656" d="M1815.359,21.072a20.5,20.5,0,1,1,20.5,20.523,20.5,20.5,0,0,1-20.5-20.523Z" fill="#00aa14"/>
      <path id="Path_1657" data-name="Path 1657" d="M1851.945,21.072c-10.435,3.125-12.967,5.659-16.087,16.1-3.121-10.447-5.652-12.982-16.087-16.1,10.435-3.125,12.967-5.659,16.087-16.105,3.121,10.447,5.652,12.982,16.087,16.105" fill="#fff"/>
      <path id="Path_1658" data-name="Path 1658" d="M1788.137,35.329a7.534,7.534,0,0,1-7.54-7.515V20.3h7.54a7.515,7.515,0,0,1,.007,15.03Zm0-21.268h-7.54V.579h-6.256V27.814a13.8,13.8,0,1,0,13.854-13.753h-.058" fill="#00aa14"/>
      <path id="Path_1659" data-name="Path 1659" d="M1460.846,35.329a7.535,7.535,0,0,1-7.539-7.515V20.3h7.539a7.515,7.515,0,0,1,.007,15.03Zm0-21.268h-7.539V.579h-6.256V27.814a13.8,13.8,0,1,0,13.854-13.753h-.059" fill="#00aa14"/>
      <path id="Path_1660" data-name="Path 1660" d="M1184.429,35.329a7.534,7.534,0,0,1-7.54-7.515V20.3h7.54a7.515,7.515,0,0,1,.007,15.03Zm0-21.268h-7.54V.579h-6.26V27.814a13.8,13.8,0,1,0,13.854-13.753h-.054" fill="#00aa14"/>
      <path id="Path_1661" data-name="Path 1661" d="M205.911.323,186.075,20.846h39.672Z" fill="#38622c"/>
      <path id="Path_1662" data-name="Path 1662" d="M205.911,20.846,186.075,41.369h39.672Z" fill="#264723"/>
      <path id="Path_1663" data-name="Path 1663" d="M165.9,35.72c7.281,3.363,12.062-1.424,8.7-8.713,7.524-2.777,7.524-9.545,0-12.322,3.359-7.289-1.422-12.076-8.7-8.713-2.773-7.532-9.534-7.532-12.308,0-7.281-3.363-12.062,1.424-8.7,8.713-7.524,2.776-7.524,9.545,0,12.322-3.359,7.289,1.422,12.076,8.7,8.713,2.774,7.532,9.534,7.532,12.308,0" fill="#264723"/>
      <path id="Path_1664" data-name="Path 1664" d="M112.444,41.369a20.523,20.523,0,1,1,20.5-20.546v.023a20.511,20.511,0,0,1-20.5,20.523Z" fill="#00aa14"/>
      <path id="Path_1665" data-name="Path 1665" d="M112.444,4.742c3.122,10.445,5.652,12.98,16.091,16.1-10.435,3.125-12.967,5.659-16.087,16.1-3.122-10.447-5.652-12.982-16.087-16.1,10.435-3.125,12.967-5.659,16.087-16.1" fill="#fff"/>
      <path id="Path_1666" data-name="Path 1666" d="M298.4,41.206c-2.582,0-4.9-2.038-6.261-5.471-3.384,1.465-6.462,1.265-8.292-.563s-2.029-4.913-.563-8.3c-3.429-1.358-5.465-3.683-5.465-6.268s2.036-4.91,5.465-6.268c-1.466-3.388-1.263-6.473.563-8.3s4.908-2.031,8.292-.564C293.495,2.038,295.818,0,298.4,0s4.9,2.038,6.261,5.471c3.384-1.468,6.466-1.264,8.292.563s2.028,4.913.563,8.3c3.43,1.358,5.465,3.683,5.465,6.268s-2.036,4.91-5.465,6.268c1.466,3.388,1.263,6.473-.562,8.3s-4.908,2.031-8.292.563c-1.356,3.433-3.679,5.472-6.261,5.472m-5.9-6.344.12.328c1.239,3.363,3.4,5.371,5.779,5.371s4.54-2.008,5.778-5.371l.121-.328.317.146c3.251,1.5,6.2,1.392,7.88-.293s1.792-4.634.292-7.887l-.146-.317.327-.121c3.36-1.241,5.365-3.4,5.365-5.785s-2.006-4.546-5.365-5.785l-.327-.121.146-.317c1.5-3.255,1.391-6.2-.292-7.887S307.867,4.7,304.615,6.2l-.317.146-.121-.326c-1.239-3.363-3.4-5.371-5.779-5.371s-4.54,2.008-5.779,5.371l-.12.328-.317-.146c-3.251-1.5-6.2-1.392-7.878.293s-1.792,4.634-.293,7.887l.146.317-.328.121c-3.36,1.241-5.365,3.4-5.365,5.785s2.006,4.546,5.365,5.785l.328.121-.146.317c-1.5,3.255-1.39,6.2.293,7.887s4.629,1.794,7.878.293Z" fill="#00aa14"/>
      <path id="Path_1667" data-name="Path 1667" d="M238.6,6.334a20.484,20.484,0,1,1-.057.057l.057-.057" fill="#264723"/>
      <path id="Path_1668" data-name="Path 1668" d="M253.093,4.742c3.122,10.445,5.652,12.98,16.091,16.1-10.435,3.125-12.967,5.659-16.087,16.1-3.122-10.447-5.652-12.982-16.087-16.1,10.435-3.125,12.967-5.659,16.087-16.1" fill="#00aa14"/>
      <path id="Path_1669" data-name="Path 1669" d="M483.241.323,463.4,20.846h39.672Z" fill="#38622c"/>
      <path id="Path_1670" data-name="Path 1670" d="M483.241,20.846,463.4,41.369h39.672Z" fill="#264723"/>
      <path id="Path_1671" data-name="Path 1671" d="M904.527.323,884.691,20.846h39.672Z" fill="#38622c"/>
      <path id="Path_1672" data-name="Path 1672" d="M904.527,20.846,884.691,41.369h39.672Z" fill="#264723"/>
      <path id="Path_1673" data-name="Path 1673" d="M443.225,35.72c7.281,3.363,12.062-1.424,8.7-8.713,7.524-2.777,7.524-9.545,0-12.322,3.359-7.289-1.422-12.076-8.7-8.713-2.773-7.532-9.534-7.532-12.308,0-7.281-3.363-12.062,1.424-8.7,8.713-7.524,2.776-7.524,9.545,0,12.322-3.359,7.289,1.422,12.076,8.7,8.713,2.773,7.532,9.534,7.532,12.308,0" fill="#264723"/>
      <path id="Path_1674" data-name="Path 1674" d="M390.12,41.369a20.523,20.523,0,1,1,20.5-20.546v.023a20.511,20.511,0,0,1-20.5,20.523Z" fill="#00aa14"/>
      <path id="Path_1675" data-name="Path 1675" d="M390.12,4.742c3.122,10.447,5.652,12.982,16.087,16.105-10.435,3.125-12.967,5.659-16.087,16.1-3.126-10.448-5.652-12.983-16.087-16.11,10.435-3.125,12.967-5.659,16.087-16.1" fill="#fff"/>
      <path id="Path_1676" data-name="Path 1676" d="M574.817,41.206c-2.582,0-4.9-2.038-6.261-5.471-3.383,1.468-6.465,1.264-8.291-.563s-2.029-4.913-.562-8.3c-3.429-1.358-5.465-3.683-5.465-6.268s2.036-4.91,5.465-6.268c-1.466-3.388-1.263-6.473.563-8.3s4.908-2.031,8.291-.564C569.917,2.038,572.239,0,574.817,0s4.9,2.038,6.261,5.471c3.384-1.468,6.466-1.264,8.292.563s2.029,4.913.563,8.3c3.43,1.358,5.465,3.683,5.465,6.268s-2.036,4.91-5.465,6.268c1.466,3.388,1.263,6.473-.562,8.3s-4.908,2.031-8.292.563c-1.356,3.433-3.679,5.472-6.261,5.472m-5.9-6.344.12.328c1.239,3.363,3.4,5.371,5.779,5.371s4.54-2.008,5.778-5.371l.121-.328.317.146c3.251,1.5,6.2,1.392,7.88-.293s1.792-4.634.292-7.887l-.146-.317.328-.121c3.359-1.241,5.365-3.4,5.365-5.785s-2.006-4.546-5.365-5.785l-.328-.121.146-.317c1.5-3.255,1.391-6.2-.292-7.887s-4.629-1.794-7.88-.293l-.317.146-.12-.328c-1.239-3.363-3.4-5.371-5.779-5.371s-4.54,2.008-5.779,5.371l-.12.328L568.6,6.2c-3.251-1.5-6.2-1.392-7.878.293s-1.792,4.634-.293,7.887l.146.317-.327.121c-3.359,1.241-5.365,3.4-5.365,5.785s2.006,4.546,5.365,5.785l.327.121-.146.317c-1.5,3.255-1.391,6.2.293,7.887s4.629,1.794,7.878.293Z" fill="#00aa14"/>
      <path id="Path_1677" data-name="Path 1677" d="M529.515,41.369a20.523,20.523,0,1,1,20.5-20.546v.023a20.511,20.511,0,0,1-20.5,20.523Z" fill="#264723"/>
      <path id="Path_1678" data-name="Path 1678" d="M529.515,4.742c3.121,10.447,5.652,12.982,16.087,16.105-10.435,3.125-12.967,5.659-16.087,16.1-3.122-10.447-5.652-12.982-16.087-16.1,10.435-3.125,12.967-5.659,16.087-16.105" fill="#00aa14"/>
      <path id="Path_1679" data-name="Path 1679" d="M622.576,41.369a20.523,20.523,0,1,1,20.5-20.546v.023a20.511,20.511,0,0,1-20.5,20.523Z" fill="#264723"/>
      <path id="Path_1680" data-name="Path 1680" d="M622.577,4.742c3.122,10.447,5.652,12.982,16.087,16.105-10.435,3.125-12.967,5.659-16.087,16.1-3.122-10.447-5.652-12.982-16.087-16.1,10.435-3.125,12.968-5.659,16.087-16.105" fill="#00aa14"/>
      <path id="Path_1681" data-name="Path 1681" d="M810.6.323l19.835,20.523H790.763Z" fill="#38622c"/>
      <path id="Path_1682" data-name="Path 1682" d="M810.6,20.846l19.835,20.522H790.763Z" fill="#264723"/>
      <path id="Path_1683" data-name="Path 1683" d="M850.649,35.72c-7.281,3.363-12.062-1.424-8.7-8.713-7.524-2.777-7.524-9.545,0-12.322-3.359-7.289,1.422-12.076,8.7-8.713,2.773-7.532,9.534-7.532,12.308,0,7.281-3.363,12.062,1.424,8.7,8.713,7.524,2.776,7.524,9.545,0,12.322,3.359,7.289-1.422,12.076-8.7,8.713-2.773,7.532-9.534,7.532-12.308,0" fill="#264723"/>
      <path id="Path_1684" data-name="Path 1684" d="M20.58,41.206c-2.582,0-4.9-2.038-6.261-5.471C10.935,37.2,7.853,37,6.028,35.172S4,30.259,5.465,26.871C2.035,25.514,0,23.188,0,20.6s2.036-4.91,5.465-6.268C4,10.948,4.2,7.862,6.028,6.035S10.935,4,14.319,5.472C15.675,2.038,18,0,20.58,0s4.905,2.038,6.261,5.471c3.384-1.468,6.466-1.265,8.291.563s2.029,4.913.563,8.3c3.429,1.358,5.465,3.683,5.465,6.268s-2.036,4.91-5.465,6.268c1.466,3.388,1.263,6.473-.563,8.3s-4.907,2.031-8.291.563c-1.356,3.433-3.677,5.472-6.261,5.472m-5.9-6.344.121.328c1.239,3.363,3.4,5.371,5.778,5.371s4.541-2.008,5.779-5.371l.121-.328.317.146c3.251,1.5,6.2,1.392,7.878-.293s1.792-4.634.293-7.887l-.146-.317.328-.121c3.36-1.241,5.366-3.4,5.366-5.785s-2.006-4.546-5.366-5.785L34.82,14.7l.146-.317c1.5-3.255,1.391-6.2-.293-7.887S30.045,4.7,26.8,6.2l-.317.146-.121-.328C25.119,2.657,22.96.649,20.58.649s-4.541,2-5.78,5.367l-.121.328L14.361,6.2c-3.251-1.5-6.2-1.392-7.878.293S4.691,11.127,6.19,14.38l.146.317-.328.121C2.65,16.057.645,18.218.645,20.6S2.65,25.147,6.01,26.387l.328.121-.146.317c-1.5,3.255-1.391,6.2.293,7.887s4.628,1.794,7.878.293Z" fill="#00aa14"/>
      <path id="Path_1685" data-name="Path 1685" d="M762.678,41.369a20.523,20.523,0,1,0-20.5-20.546v.023a20.511,20.511,0,0,0,20.5,20.523Z" fill="#264723"/>
      <path id="Path_1686" data-name="Path 1686" d="M762.678,4.742c-3.122,10.447-5.652,12.982-16.087,16.105,10.435,3.125,12.968,5.659,16.087,16.1,3.122-10.447,5.652-12.982,16.087-16.1C768.33,17.722,765.8,15.188,762.678,4.742" fill="#00aa14"/>
      <path id="Path_1687" data-name="Path 1687" d="M695.971,20.846a20.5,20.5,0,1,1,20.5,20.523,20.5,20.5,0,0,1-20.5-20.523Z" fill="#00aa14"/>
      <path id="Path_1688" data-name="Path 1688" d="M732.557,20.842c-10.435,3.125-12.968,5.659-16.088,16.1-3.121-10.447-5.652-12.982-16.087-16.1,10.435-3.125,12.967-5.659,16.087-16.1,3.122,10.447,5.652,12.982,16.088,16.1" fill="#fff"/>
      <path id="Path_1689" data-name="Path 1689" d="M668.981,35.1a7.534,7.534,0,0,1-7.54-7.515V20.073h7.54a7.515,7.515,0,0,1,.007,15.03Zm0-21.268h-7.54V.357h-6.26V27.588a13.8,13.8,0,1,0,13.854-13.753h-.058" fill="#00aa14"/>
      <path id="Path_1690" data-name="Path 1690" d="M344.874,35.1a7.535,7.535,0,0,1-7.539-7.515V20.073h7.539a7.515,7.515,0,0,1,.007,15.03Zm0-21.268h-7.539V.357h-6.256V27.588a13.8,13.8,0,1,0,13.854-13.753h-.059" fill="#00aa14"/>
      <path id="Path_1691" data-name="Path 1691" d="M67.082,35.1a7.534,7.534,0,0,1-7.54-7.515V20.073h7.54a7.515,7.515,0,1,1,.007,15.03Zm0-21.268h-7.54V.357H53.287V27.588A13.8,13.8,0,1,0,67.142,13.835h-.06" fill="#00aa14"/>
    </g>
  </g>
</svg>
